<svg xmlns="http://www.w3.org/2000/svg" viewBox="0 0 120.78 395.13"><defs><style>.cls-1,.cls-2{fill:none;stroke-linejoin:round;}.cls-1,.cls-2,.cls-4,.cls-5{stroke:#f9c251;}.cls-1,.cls-2,.cls-4{stroke-linecap:round;}.cls-1{stroke-width:2px;}.cls-3,.cls-4,.cls-5{fill:#f9c251;}.cls-4,.cls-5{stroke-miterlimit:10;}.cls-4{stroke-width:1.12px;}.cls-5{stroke-width:0.56px;}.cls-6{fill:#ffc347;}</style></defs><title>Illu_2</title><g id="Calque_2" data-name="Calque 2"><g id="Calque_1-2" data-name="Calque 1"><path class="cls-1" d="M32.18,363.58a5.73,5.73,0,0,0,.09,1.69c.15.63.11,1.31.29,1.93a7.46,7.46,0,0,1,.36,1.28c.09.72.12,1.7.79,2.16a1.24,1.24,0,0,0,.67.17,5,5,0,0,1,1.18.24,12.56,12.56,0,0,0,2.82.57c5.63.43,11.26.15,16.9.15a34.21,34.21,0,0,0,3.49-.19c1.23-.12,2.47-.15,3.7-.34,2-.32,3.92-1.08,5.92-1.48a11.72,11.72,0,0,0,1.67-.5,3.87,3.87,0,0,0,1.16-.47c.51-.47.52-1.6.62-2.23a19.13,19.13,0,0,0,.41-2.6,4.19,4.19,0,0,1,.17-1.06c.07-.27.15-.58-.09-.78a2.69,2.69,0,0,0-.68-.26,4.72,4.72,0,0,0-1.27-.39,35.79,35.79,0,0,0-4.86.17,61.3,61.3,0,0,0-6.55.71,28.84,28.84,0,0,1-3.65.2c-.69,0-1.36.15-2,.22-.89.09-1.8.09-2.69.14-1.26.08-2.53,0-3.8,0a36.6,36.6,0,0,1-3.85.23c-1.08-.06-2.12,0-3.2,0-.78,0-1.56-.07-2.34-.1L34.06,363a6.33,6.33,0,0,0-1.83,0A3.91,3.91,0,0,0,32.18,363.58Z"/><path class="cls-1" d="M36.2,371.81c.65,2.25.4,4.94.32,7.27-.09,2.72.88,5.36,1,8.08.05,1.34.23,3.68,1,4.83.59.9,1.7.8,2.68,1a36,36,0,0,0,6.73.76,81.71,81.71,0,0,0,12.51-.38,15,15,0,0,0,5.49-1.76c3.26-1.9,2.9-5.08,3-8.54a95,95,0,0,0,.22-9.63c-.06-.93.1-2.28-.33-3.07"/><path class="cls-1" d="M37.66,363c-.43-.3,0-1.77.12-2.29a4.54,4.54,0,0,1,2.38-3.06c1.15-.5,2.55,0,3.61-.28.72-.21,1.29-1.25,2-1.71a5.19,5.19,0,0,1,3.77-.82c1,.17,1.69,1.07,2.66,1.22,2.2.34,7.75-1.46,8.31,2,1.32.27,2.89-.23,3.72.92.51.71.49,1.51.9,2.28"/><path class="cls-1" d="M53.64,355.61"/><path class="cls-2" d="M67.49,369.72c1.11-.68,1.57-3.42,1.64-4.73a15.92,15.92,0,0,1,.33-4"/><path class="cls-2" d="M63.08,392.62c.36-.46,1-.65,1.35-1.07a5.56,5.56,0,0,0,1-3.11,83.75,83.75,0,0,0,.55-9.89c0-2.68,0-5.33,0-8"/><path class="cls-3" d="M62.1,393.35a3.17,3.17,0,0,0,1.08-.15,18.8,18.8,0,0,1,4.17-.42c5.81-.49,11.64-.55,17.45-1,6.83-.53,13.63-.48,20.48-.46l6.91,0a10.73,10.73,0,0,1,2.55,0c-.64.66-2.08.58-2.91.67-1.23.12-2.45.14-3.68.19-1.88.08-3.75.34-5.63.38-1.47,0-3,0-4.43,0-5.26,0-10.47-.46-15.73-.47-3.5,0-7-.11-10.52,0-1.33,0-2.67.25-4,.41-.43.05-2.75-.29-2.91.21l.15.23"/><path class="cls-3" d="M62.4,394.44c8.88-1.25,18.1-1.41,27.06-1.8,8.28-.36,17-.75,25.29-.13l-.57-2.09c-2.1,1.1-5.6.69-7.91.83s-4.45.26-6.71.25c-5.08,0-10.15-.35-15.23-.46a137.26,137.26,0,0,0-13.82,0c-1.82.15-4.48-.16-6.12.69a1.13,1.13,0,0,0-.4,1.53l.15.23c.77,1.22,2.71.09,1.94-1.13l-.15-.23-.4,1.53c.79-.41,2.77-.15,3.66-.22,2.07-.17,4.09-.27,6.17-.26q7.94,0,15.86.34a131.46,131.46,0,0,0,14.13,0c3.14-.21,7.11.29,10-1.21,1.06-.55.47-2-.57-2.09a210.59,210.59,0,0,0-27.15.22c-8.58.48-17.29.6-25.79,1.79-1.42.2-.82,2.36.6,2.16Z"/><path class="cls-1" d="M44.72,378.84l.13-.1c.17.31-.46.37-.57.23s.36-.61.58-.57c.06.14,0,.25-.1.27l0-.14"/><path class="cls-1" d="M55.46,379.18a.61.61,0,0,1-.78.29c-.61-.37.61-1.09.93-1.06.15.33-.35,1.14-.69.85s.08-.49.37-.36c0,.15-.11.28-.14.44"/><path class="cls-1" d="M41.91,383.17c0,.11,0,.25,0,.35.1.32.51.58.77.85a5.26,5.26,0,0,0,1.75,1,10.26,10.26,0,0,0,3.78.73c1.06,0,2.11-.14,3.17-.16a15,15,0,0,0,2.86-.35c.53-.12,1.08-.19,1.61-.3s.94-.79,1.56-.88"/><path class="cls-4" d="M76,391.55c0,.1.16.06.26,0,.48-.06,1-.21,1.42-.29,1.19-.22,2.4-.38,3.58-.62,1-.21,2-.47,3.05-.65,2-.34,4-.61,5.9-1.06.94-.22,1.83-.51,2.79-.67.59-.09,1.18-.2,1.77-.28a1.76,1.76,0,0,1,.72,0c.27.14,0,.42-.15.52a12.15,12.15,0,0,1-3.25,1.68,16.08,16.08,0,0,1-1.66.57,12.56,12.56,0,0,1-1.24.36,3.78,3.78,0,0,0-1,.37"/><path class="cls-4" d="M84.86,391.39c.16.09.25.21.4.31a6.71,6.71,0,0,0,.85.35c.7.32,1.37.72,2.08,1,.52.22,1.06.38,1.56.65.16.09.8.33.67.6s-.77.26-1,.26a10.15,10.15,0,0,1-2-.41c-.72-.17-1.47-.19-2.2-.34a16,16,0,0,0-1.72-.31,5.24,5.24,0,0,1-1.4-.18c-.29-.11-.55-.24-.85-.33-.51-.15-.94-.42-1.44-.59-.29-.1-.49-.31-.81-.31"/><path class="cls-5" d="M115.16,390.81a.46.46,0,0,0,.23,0,1.12,1.12,0,0,0,.32-.13,4.81,4.81,0,0,1,1.08-.24,7.66,7.66,0,0,1,1.84-.06,4.05,4.05,0,0,1,1.23.34c.25.11.56.27.64.56s-.21.47-.44.57a3.25,3.25,0,0,1-1.22.23,17.89,17.89,0,0,1-2.86-.21,2.4,2.4,0,0,1-1.36-.48C114.25,391.11,114.79,390.93,115.16,390.81Z"/><path class="cls-1" d="M52.9,356.18c-.7-1.42-.2-2.91-.53-4.49a35.54,35.54,0,0,1-.34-7.24,73.39,73.39,0,0,1,.9-10.32c.27-2,.85-4,1.28-5.91s1.35-3.52,1.79-5.41a96.19,96.19,0,0,1,3.1-11.48,44.55,44.55,0,0,0,2.53-14.85,43.4,43.4,0,0,0-.4-8.72c-.63-3.06-1.69-6.15-2.56-9.15-1.5-5.17-3.65-10-4.91-15.26-.54-2.27-1.42-4.41-2.07-6.65a70.82,70.82,0,0,1-2.08-9.51c-.95-6.54-1.93-13.14-1-19.73.29-2,.77-4,1-6s.31-3.88.71-5.8c.88-4.23,1.86-8.31,2.33-12.63a91.78,91.78,0,0,1,2.42-13.31c1.28-4.92,1.58-10,2.61-14.93,1.57-7.62,1.25-15.49,1.3-23.23a46.82,46.82,0,0,0-1-10.28,88.15,88.15,0,0,0-2.08-9.43,21.49,21.49,0,0,1-.9-4.05c-.37-2.75-1.41-5.42-1.83-8.17-.63-4.07-.28-8.31-.3-12.42a27.47,27.47,0,0,1,1.41-8.44c.64-2,1.47-4.15,2-6.22a24.84,24.84,0,0,1,1.64-4.24c.66-1.47.29-4.67-.23-6.1"/><path class="cls-1" d="M51.6,355.31c-1.16.39-.83-.85-.91-1.51-.19-1.57-.64-3.29-1-4.88-.91-4.53-.26-9.58-.32-14.19s2.23-8.72,3-13.24c.84-5.13,2.78-10.21,2.72-15.44-.06-5.49.91-11,.35-16.5a68.44,68.44,0,0,0-4.29-16.85c-1.08-2.87-1.36-6.09-2.63-8.88a14.55,14.55,0,0,1-.86-1.76c-.27-.86-.24-1.91-.44-2.81-.87-3.89-1.95-7.78-3-11.63-.74-2.81-.14-5,0-7.83.07-2-.19-4,.29-6,.43-1.8.53-3.61.87-5.42,1-5.14,1.75-10.32,2.37-15.5.44-3.64,1.44-7.18,1.62-10.87.19-3.87,0-8,1.36-11.62a20.25,20.25,0,0,0,.78-5.46c.23-2.71.39-5.43.51-8.14.08-1.79.37-3.49.63-5.26A66.3,66.3,0,0,0,52.9,162c0-3,.07-6,0-9-.06-4-1.29-7.74-2.22-11.62-.59-2.46-1.66-4.78-1.7-7.29a11.51,11.51,0,0,0-.77-3c-.62-2.08-1.22-4.28-1.63-6.41-.86-4.42.25-9,.19-13.42a13.45,13.45,0,0,1,1.34-6c.37-.87.55-1.8.86-2.7s.24-1.64.5-2.4.86-1.23,1.15-1.94.32-1.5.62-2.21c.5-1.19,1.11-2.24,1.54-3.48a18.71,18.71,0,0,0,1.42-6.3c0-1.45-.52-4.56.43-5.68a4.2,4.2,0,0,1,1.75-1.18c.37-.09.3-.24.76-.14"/><path class="cls-1" d="M58.08,276.26h.07c0-.11,0-.21,0-.32a2.86,2.86,0,0,0,.09-.34,6.65,6.65,0,0,1,.1-1c.08-.36.16-.72.25-1.07,0-.17.08-.33.12-.5a5.39,5.39,0,0,1,.22-.58,5.21,5.21,0,0,1,.24-.75,9.44,9.44,0,0,0,.49-.86c.18-.4.37-.79.58-1.17a4.33,4.33,0,0,1,.45-.66,4.94,4.94,0,0,0,.53-.57l.24-.37a14.64,14.64,0,0,1,1.22-1.42c.4-.41.6-1,1-1.42.54-.59.77-1.35,1.25-2a14,14,0,0,0,1.18-2.68,13.53,13.53,0,0,0,.93-2.16c.11-.39.14-.8.25-1.2a5.42,5.42,0,0,0,.28-1.12c.09-.93.24-1.86.33-2.79A8.28,8.28,0,0,1,68,252a2.69,2.69,0,0,0,.09-.37,10.51,10.51,0,0,0,0-1.18q0-.83,0-1.67a12.15,12.15,0,0,0,0-2A9.18,9.18,0,0,1,67.8,245a8.13,8.13,0,0,0,0-1.32,10.1,10.1,0,0,1-.34-1.38c-.06-1.17,0-2.37,0-3.54s0-2.18,0-3.27a9.63,9.63,0,0,1,.71-3.08,25.32,25.32,0,0,1,2.4-5.21,9.56,9.56,0,0,1,3.12-3.35c.6-.37,1.16-.76,1.25.23.07.75-.61,1.36-1.1,1.87a9.62,9.62,0,0,0-2.06,2.93,9.12,9.12,0,0,0-1.21,3.92c0,.89,0,1.79,0,2.68,0,.45,0,.91,0,1.36s.28,1.06.34,1.63c.1,1,.28,2.05.29,3.09,0,1.85.88,3.61,1,5.49.07,1.61,0,3.24,0,4.84,0,.6,0,1.2,0,1.8a23.81,23.81,0,0,1-.33,2.42,10.63,10.63,0,0,1-.29,2.21c-.2.68-.67,1.14-.9,1.79a27.88,27.88,0,0,1-1.21,3.49c-1,2-2.24,3.93-3.26,6a11.33,11.33,0,0,1-1,1.42,11.61,11.61,0,0,0-.6,1.25c-.52,1-1.27,1.8-1.8,2.78a21.73,21.73,0,0,0-2,4.75,21.47,21.47,0,0,0-.16,5"/><path class="cls-1" d="M49.41,201c-.12-1.55-.64-3.29-.75-4.83a24.46,24.46,0,0,0-1.09-5.93c-.48-1.46-.91-3.06-1.5-4.47a30.4,30.4,0,0,0-1.64-3.86,60,60,0,0,0-5.23-7.19c-.85-1-1.92-2-2.68-3-1.06-1.3-2.56-1.79-3.75-2.9-.84-.79-1.54-1.72-2.36-2.53a35,35,0,0,1-3-3.15c-.53-.67-1.1-1.26-1.67-1.9A44,44,0,0,1,22.92,157a28.39,28.39,0,0,1-4-10.44c-.23-1.17-.64-2.28-.87-3.42a29,29,0,0,1-.24-3.28,10.36,10.36,0,0,1-.05-2.7c.13-.68.46-1.34.6-2a2.84,2.84,0,0,1,.54-1.42c.47-.55.84-.4,1.27.22a4.49,4.49,0,0,1,.76,1.66,7.42,7.42,0,0,0,.08.9c.12.37.31.47.36.93.21,1.77.27,3.57.41,5.35a7.58,7.58,0,0,0,.13,1.5c.19.63.57,1.14.72,1.8a12,12,0,0,0,1.43,3.48,29.19,29.19,0,0,0,2,2.65c.87,1.18,1.49,2.49,2.39,3.65A35.61,35.61,0,0,0,33,161.42c2.65,2.22,5.1,4.94,7.57,7.3a15.24,15.24,0,0,1,1.91,1.82c.31.42.52.86.84,1.25a11.08,11.08,0,0,1,.77.94A23.06,23.06,0,0,0,47,177c.52.5.44.84.7,1.41s.49.77.66,1.21.44,1.12.71,1.68a12.24,12.24,0,0,0,1.06,2,10.84,10.84,0,0,1,1.13,2.82"/><path class="cls-1" d="M62.28,298.08c.16,0,.3-.16.43-.24s.59-.26.87-.42a5.69,5.69,0,0,0,1.48-1.18c.06-.08.11-.17.18-.24s.29-.23.41-.37A4.6,4.6,0,0,0,66,295c.14-.23.3-.44.43-.68s.25-.34.22-.51"/><path class="cls-1" d="M70.28,285.75a2.81,2.81,0,0,0-1.34.51c-.25.17-.53.3-.77.49s-.5.51-.77.73a4.66,4.66,0,0,0-1,1.2c-.07.12-.11.26-.18.38s-.16.15-.19.23,0,.23-.08.35a3.91,3.91,0,0,0-.22,1,2.44,2.44,0,0,0,0,1c.07.22.19.41.27.63a5.75,5.75,0,0,0,.36.8,2,2,0,0,0,.19.35c.06.07.16.13.21.19s0,.08.15.1a2.78,2.78,0,0,0,.33,0c.25,0,.51,0,.77,0a1.28,1.28,0,0,0,.46-.18,1.18,1.18,0,0,0,.5-.29c.31-.32.7-.56,1-.9a5.9,5.9,0,0,0,.86-1,9.26,9.26,0,0,0,.51-1.4c.08-.27.11-.56.17-.84a4.07,4.07,0,0,0,.12-.9c0-.26,0-.52,0-.79a4.64,4.64,0,0,0,0-.91,1.29,1.29,0,0,0-.23-.52c-.15-.18-.26-.16-.49-.16A2.58,2.58,0,0,0,70.28,285.75Z"/><path class="cls-1" d="M71.91,244.22a2.26,2.26,0,0,1,.76-.88c.46-.37,1-.67,1.47-1,.27-.21.51-.37.78-.56s.55-.77.82-.68"/><path class="cls-1" d="M81.26,236.1a4.9,4.9,0,0,0-.91,0,4.89,4.89,0,0,0-1,.47c-.23.1-.49.18-.73.27A4.12,4.12,0,0,0,77.09,238a5.44,5.44,0,0,0-.48.78,7.45,7.45,0,0,0-.39.91,4.55,4.55,0,0,0-.23.78,1.13,1.13,0,0,0,0,.46c0,.2,0,.14.17.27a1.68,1.68,0,0,0,.73.25,4.42,4.42,0,0,0,1.45.15,3.09,3.09,0,0,0,2.06-1.19,4.15,4.15,0,0,0,.65-1,4.8,4.8,0,0,0,.36-1.1,4.85,4.85,0,0,0,.12-.9A4.35,4.35,0,0,0,81.26,236.1Z"/><path class="cls-1" d="M66.95,236.44c-.26.09-.22-.18-.3-.34s-.44-.43-.6-.7-.3-.77-.51-1.12-.49-.56-.69-.9-.4-.86-.65-1.23a4.81,4.81,0,0,1-.63-.92c-.15-.35-.22-.73-.36-1.09-.06-.15-.14-.32-.31-.36"/><path class="cls-1" d="M62.66,229.45c0,.29-1.18-.28-1.35-.34a8.35,8.35,0,0,1-.86-.3,2.65,2.65,0,0,1-1-.86,5.64,5.64,0,0,1-.9-2.55,5,5,0,0,1-.12-1.15,8.46,8.46,0,0,1,.25-1,2.57,2.57,0,0,1,1.87.37c.33.25.63.58,1,.85a5.72,5.72,0,0,1,.82,1,3.78,3.78,0,0,1,.73,2.33c0,.29.15,1.35-.2,1.42C62.91,229.18,62.9,229.15,62.66,229.45Z"/><path class="cls-1" d="M75.06,222.8c-.39,0-.75.12-1.15.12a7.36,7.36,0,0,1-2.29-.17,8.42,8.42,0,0,1-2.71-1.46c-.66-.54-1.38-1-2.06-1.53-.33-.26-.61-.55-1-.79s-.53-.41-.8-.62a2.92,2.92,0,0,0-.92-.52c-.54-.19,0-.35.26-.52s.92-.33,1.38-.54a4.56,4.56,0,0,1,1.45-.19,5.35,5.35,0,0,1,2.14,0,9,9,0,0,1,1.68.73c.29.15.67.22.88.47s.21.32.4.45a2.7,2.7,0,0,1,.56.39,5.33,5.33,0,0,1,.34.45c.14.18.34.3.43.51a2,2,0,0,0,.14.36c.1.15.25.24.31.43s.11.53.17.79,0,.57.06.86C74.53,222.12,74.68,222.11,75.06,222.8Z"/><path class="cls-1" d="M74,222c0-.71-.06-1.45,0-2.16,0-.24.11-.46.12-.7a9.43,9.43,0,0,0,0-1.07c0-.28-.11-.54-.15-.81s-.06-.82-.11-1.23a9.72,9.72,0,0,1,.7-5c.14-.33.34-.63.46-1,0-.11.09-.45.21-.54s.37,0,.56.05a5.72,5.72,0,0,1,1.14.77c.65.46.75,1,1.12,1.72a4.29,4.29,0,0,1,.68,1.94,6.1,6.1,0,0,1-.46,2.57,12.27,12.27,0,0,1-1.83,3.26,5,5,0,0,1-.51.44c-.19.17-.3.39-.47.58s-.29.23-.43.36A2.62,2.62,0,0,1,74,222Z"/><path class="cls-1" d="M74.39,222.91c0,.22.17.42.24.62a3,3,0,0,1,.22.72c0,.22,0,.44,0,.65s.08.39.1.58a3,3,0,0,0,.6,1.33c.31.48.67.92,1,1.39a6.92,6.92,0,0,0,.65.67,3,3,0,0,0,.66.63,7.53,7.53,0,0,0,3.6,1.29c.28,0,.36,0,.39-.23a4.65,4.65,0,0,0,0-.66c0-.66.13-1.3.12-2a7.06,7.06,0,0,0-.1-1.27,4.57,4.57,0,0,0-.55-1.19,4.63,4.63,0,0,0-1.09-1.58,6.34,6.34,0,0,0-1.53-1C77.78,222.52,76.8,222.58,74.39,222.91Z"/><path class="cls-1" d="M75.63,222.13c.13-1,.91-1.73,1.36-2.6a4.65,4.65,0,0,1,1.15-1.58c.58-.44,1.21-.88,1.83-1.26a8.79,8.79,0,0,1,2.47-1.05,9.38,9.38,0,0,1,2.05-.5c.58,0,1.17,0,1.75,0a3.75,3.75,0,0,1,.79.09c.15,0,.33,0,.45.08s.07.42,0,.63,0,.58-.12.89a6.55,6.55,0,0,1-3.79,3.68,16.77,16.77,0,0,1-5.14,1c-.25,0-.5,0-.75,0s-.4.1-.61.12A2.14,2.14,0,0,0,75.63,222.13Z"/><path class="cls-1" d="M76.26,242c0,1-.69,2.44.23,3.24.21.18.35.44.56.61a2.7,2.7,0,0,0,1,.35c.39.11.74.33,1.13.47.16.06.76.26.92.1s0-.35,0-.44c0-.31,0-.61,0-.92a2.9,2.9,0,0,0-.72-1.57,6,6,0,0,0-1.15-1A3.78,3.78,0,0,0,76.26,242Z"/><path class="cls-1" d="M47.45,260.26c.08-.25-.21-.71-.38-.85s-.44-.18-.62-.33-.27-.46-.44-.62-.32-.12-.55-.22-.34-.31-.48-.47a3.92,3.92,0,0,0-1.12-.8c-.65-.32-1.36-.58-2-.94a10.65,10.65,0,0,0-1.21-.49c-.29-.12-.68-.54-1-.45"/><path class="cls-1" d="M39.07,255.07c-.41.13-.77.45-1.19.6a5.4,5.4,0,0,1-2,.4,6.35,6.35,0,0,1-2.87-.44,4.35,4.35,0,0,1-1.2-1.17,8.9,8.9,0,0,1-.53-.84,6.69,6.69,0,0,1-.91-1.94c-.16-.47-.16-.5.3-.6a6.2,6.2,0,0,1,1.1-.2,18.05,18.05,0,0,1,2.71.22,7.43,7.43,0,0,1,2,.54,8.52,8.52,0,0,1,1.81.74A2,2,0,0,1,39.07,255.07Z"/><path class="cls-1" d="M48,211.3a17.79,17.79,0,0,0-.62-2.78,21,21,0,0,0-.85-2.41c-.29-.72-.54-1.47-.85-2.18a5.3,5.3,0,0,1-.64-1.35l-.16,0"/><path class="cls-1" d="M44.66,202.35c0-.61.33-1,.41-1.58a5.53,5.53,0,0,0-.35-3.24c-.26-.35-.71-.45-.94-.79-.1-.15-.1-.34-.23-.47s-.27-.12-.39-.23-.21-.37-.34-.45-.26,0-.36,0c-.27-.11-.3-.28-.6-.12-.85.47-1,2.3-1,3.08a2.47,2.47,0,0,0,.71,2.13c.21.23.31.46.59.6s.48.12.7.34.16.27.24.32.25,0,.36,0a1.47,1.47,0,0,0,.79.21"/><path class="cls-1" d="M43.15,201.78c-.46,0-.94,0-1.4,0a1.87,1.87,0,0,0-.79.28,9.59,9.59,0,0,0-1.06.41,3.06,3.06,0,0,0-.74.75,10.25,10.25,0,0,0-1,1.35,4,4,0,0,0-.59,1.5c0,.67,0,.66.63.74a7.29,7.29,0,0,0,2.53,0,5.23,5.23,0,0,0,2-.84,2.09,2.09,0,0,0,.55-.64c.15-.29,0-1.1.44-1.17"/><path class="cls-1" d="M26.22,152c.21,0,.37-.65.47-.83a16.12,16.12,0,0,1,1.19-1.8c.22-.3.52-.52.76-.81a4.82,4.82,0,0,0,.73-1"/><path class="cls-1" d="M29.66,147.84c-.07-.25-.29-.21-.47-.33a1.76,1.76,0,0,1-.53-.68,4.2,4.2,0,0,1,.08-2.56A9.28,9.28,0,0,1,31,141.44a7.63,7.63,0,0,1,1.3-1,8,8,0,0,0,1.27-.58c.27-.21.39-.58.66-.19a2.17,2.17,0,0,1,.28,1.06,7.33,7.33,0,0,1-.74,4.43,4.91,4.91,0,0,1-1,1.34,8,8,0,0,1-1.08.77,5.36,5.36,0,0,1-1,.48A1.52,1.52,0,0,1,29.66,147.84Z"/><path class="cls-1" d="M17.77,145.5a4.8,4.8,0,0,1-1.37-.71,16.82,16.82,0,0,0-1.82-.8,18,18,0,0,0-3.31-.85c0-.11.11-.15.25-.12"/><path class="cls-1" d="M11.17,143.59a7.76,7.76,0,0,0-1,.61c-.55.33-1.1.66-1.65,1a3.34,3.34,0,0,1-1.8.46,5.18,5.18,0,0,1-1.48,0,3.41,3.41,0,0,1-1.13-.34,8.75,8.75,0,0,1-.85-.88c-.19-.17-.37-.37-.57-.53a3.41,3.41,0,0,0-.31-.22c-.18-.12-.49-.23-.66-.36s-.31-.48-.71-.47c-.09-.29-.08-.4.12-.59a8.08,8.08,0,0,1,1.51-1,4.31,4.31,0,0,1,2-.73,8.39,8.39,0,0,0,1.66-.19,3,3,0,0,1,1.5.09,4.65,4.65,0,0,1,1.41.7,1.55,1.55,0,0,1,.7.89A2.64,2.64,0,0,0,11.17,143.59Z"/><path class="cls-1" d="M19.5,133v.11a1.91,1.91,0,0,0-.85.45,8.56,8.56,0,0,1-1.32.85,11.75,11.75,0,0,1-3,1.25,11.41,11.41,0,0,1-1.62.15,2.94,2.94,0,0,1-1.2-.29c-.8-.29-1.58-.62-2.38-.92a5.61,5.61,0,0,1-1-.46c-.34-.21-.75-.25-1.09-.45s-.47-.34-.71-.5-.6-.29-.85-.47-.19-.19-.41-.27l-.31-.07c-.34-.19,0-.55.14-.82a4.88,4.88,0,0,1,1.27-1.45A17.14,17.14,0,0,1,8.3,129a4.72,4.72,0,0,1,2.07-.87c.5,0,1-.11,1.5-.13a3.14,3.14,0,0,1,1.56.44c.87.4,2,.33,2.8.82.5.3,1,.76,1.45,1.1s.63,1,.92,1.52a3,3,0,0,1,.33.75c0,.17,0,.35.17.43C19.1,133,19.1,133,19.5,133Z"/><path class="cls-1" d="M19.08,132.8a5.33,5.33,0,0,0-1.56-3.41,4.76,4.76,0,0,1-.82-1,2.6,2.6,0,0,0-.54-.51,8.77,8.77,0,0,1-1.45-1.61,8.85,8.85,0,0,1-1.14-2.61,10.71,10.71,0,0,1-.48-2.42,8.61,8.61,0,0,1,.11-2.05c.05-.35.11-.71.19-1.06s.06-.39.37-.44a7.4,7.4,0,0,1,1.47-.08,4.26,4.26,0,0,1,1.06.15,10,10,0,0,1,1.19.69,6.27,6.27,0,0,1,2,2,3.53,3.53,0,0,1,.51,1.13c.19.54.58,1,.74,1.53a15,15,0,0,1,.65,2.86,8.3,8.3,0,0,1,.07,1.27,15.25,15.25,0,0,1-.36,1.66,4.52,4.52,0,0,1-.75,1.87A11.8,11.8,0,0,0,19.08,132.8Z"/><path class="cls-1" d="M19.8,133.42a7.73,7.73,0,0,0,.54.84,2.39,2.39,0,0,0,1.91,1,11,11,0,0,0,2.43.12c.38,0,.73-.19,1.12-.23s1-.07,1.5-.11a6.52,6.52,0,0,0,2.12-.7,10.89,10.89,0,0,0,2.19-1.18,6.07,6.07,0,0,0,1.63-1.38c.24-.34.24-.38-.05-.61a8.68,8.68,0,0,0-.69-.62,3.91,3.91,0,0,0-.8-.29c-.32-.12-.6-.33-.91-.46a3.43,3.43,0,0,0-1-.1c-.42-.06-.81-.19-1.24-.22a7.12,7.12,0,0,0-1.09,0l-2.11.16a5.26,5.26,0,0,0-1.71.4c-.41.2-.87.27-1.3.47a7.62,7.62,0,0,0-1.19.8C20.65,131.62,20.28,132,19.8,133.42Z"/><path class="cls-1" d="M21.84,126.67c-.06-.16.08-.39.09-.56,0-.58-.13-1.2-.11-1.79a12.63,12.63,0,0,1,.28-2.26,6.7,6.7,0,0,1,1.19-2.44,12,12,0,0,1,4-3.83A4.36,4.36,0,0,1,29,115c.19,0,.53.06.65-.13a4.08,4.08,0,0,0,.09,1,8.38,8.38,0,0,1,.36,1.39c0,.39.05.79.08,1.18a7.69,7.69,0,0,1,0,3.17c-.16.43-.27.88-.41,1.32s-.33.77-.45,1.18a10.3,10.3,0,0,1-1.2,2.09,6.26,6.26,0,0,1-1,1.29,7.93,7.93,0,0,1-2.29,1.76c-.19.09-.44.26-.63.33a4.51,4.51,0,0,1-.52.09,7.43,7.43,0,0,0-1.19.33c-.3.13-.62.17-.92.3s-.6.42-.78.38C20.22,130.52,21.82,127.29,21.84,126.67Z"/><path class="cls-1" d="M55.05,301.13a1.53,1.53,0,0,0-.65-.72c-.44-.29-.86-.58-1.29-.9a3.86,3.86,0,0,0-1.33-.7c-.51-.13-.92-.39-1.42-.56s-1.19-.41-1.77-.65a4.22,4.22,0,0,1-1.33-.58,3.85,3.85,0,0,1-.66-.89.5.5,0,0,1,.22-.7c.57-.4,1.71-.18,2.37-.18a20.24,20.24,0,0,1,2.51,0c.2,0,.35.13.55.16s.24,0,.36,0a5.68,5.68,0,0,1,.91.26l.92.3a5.47,5.47,0,0,0,.88.33"/><path class="cls-1" d="M46.4,297a7.66,7.66,0,0,1-.1,2.2,5.6,5.6,0,0,1-1.89,2.9,16.21,16.21,0,0,1-2.88,1.75,10.08,10.08,0,0,1-1.43.48c-.2.06-.41.09-.6.15l-.37.14c-.32,0-.2-.43-.2-.72a11.45,11.45,0,0,1,0-1.28,9.31,9.31,0,0,1,1.71-3.48,5.55,5.55,0,0,1,1.38-1.3,3.72,3.72,0,0,1,1.13-.69,9.51,9.51,0,0,0,1.17-.44C44.63,296.59,45.2,296.18,46.4,297Z"/><path class="cls-1" d="M44.49,297a1.59,1.59,0,0,0-.7.18,7.28,7.28,0,0,1-1.16.19c-.62.11-1.22.24-1.84.36a12,12,0,0,1-2.17.29,12.59,12.59,0,0,1-2.06,0,10.19,10.19,0,0,1-1.78-.67,4.81,4.81,0,0,1-.84-.24c-.11-.07-.14-.2-.23-.27-.41-.29-1.52-.44-.94-1.12a4.64,4.64,0,0,1,2.8-1.66,13.64,13.64,0,0,1,5.1-.42A7,7,0,0,1,43.87,295a3.05,3.05,0,0,1,.7.74c.12.17.27.63.48.66C45.06,296.29,45.07,296.21,44.49,297Z"/><path class="cls-1" d="M45.08,296.14c0-.3-.09-.35-.31-.5a3.07,3.07,0,0,1-1.14-1.41,3.93,3.93,0,0,1-.19-.9c-.09-.53-.33-1-.46-1.5a12.12,12.12,0,0,1-.23-1.92c0-.55-.31-5.15,1-4.61.25.11.54.49.76.66a7.32,7.32,0,0,1,1.53,1.7,4.24,4.24,0,0,1,.84,2.18c0,.53-.06,1.05,0,1.59a4.52,4.52,0,0,1,0,2c-.13.47-.2.94-.35,1.41a7.62,7.62,0,0,1-.25.75c-.09.21-.48.58-.39.79C45.93,296.42,46,296.43,45.08,296.14Z"/><path class="cls-1" d="M53.45,105.15c0-.5.77-.85,1.11-1a14.85,14.85,0,0,1,3.86-1.79,4.72,4.72,0,0,1,1.49,0c.2,0,.23,0,.31.14a2.22,2.22,0,0,1,0,.6,5.48,5.48,0,0,1,0,1,4.46,4.46,0,0,1-.89,1.57,18,18,0,0,1-2.41,3.17,6.92,6.92,0,0,1-2.08,1.35,2,2,0,0,1-1.35.12l0-.12"/><path class="cls-1" d="M50.44,97a8.14,8.14,0,0,0-.52-2.12,2.93,2.93,0,0,0-2.53-2.39,4,4,0,0,0-1.16,0c-.5.18-.55,1.4-.59,1.81A10.43,10.43,0,0,0,45.93,98,3.82,3.82,0,0,0,47,99.75c.24.25.48.47.71.71a.82.82,0,0,0,.74.33h-.26"/><path class="cls-1" d="M57.11,178.75c-.23-1,3.11-.62,3.68-.63a4.21,4.21,0,0,1,1.81.35,7.75,7.75,0,0,1,.92.56c.14.09.32.31.49.34"/><path class="cls-1" d="M64.79,179.22c-.07.14-.11.34-.18.46-.19.31-.39.44-.45.83a2,2,0,0,0,1,2.13,6.24,6.24,0,0,0,1.39.62c.27.08.54.25.79.32a1.42,1.42,0,0,0,1.25-.16c.4-.36.31-.7.31-1.21a5.12,5.12,0,0,0,0-.8c-.06-.32-.32-.53-.49-.78a3.21,3.21,0,0,0-1.6-1.38,7.33,7.33,0,0,0-1.68-.18"/><path class="cls-1" d="M58.74,145.48c.18-.14.12-.29.19-.47a3,3,0,0,1,.39-.61,12.29,12.29,0,0,1,1.45-2c.52-.51,1-1,1.54-1.54a5.4,5.4,0,0,1,1.44-1.13"/><path class="cls-1" d="M63.91,139.52c0-.65,0-1.32,0-2s.42-.78.78-1.12a5,5,0,0,1,2.21-.79,7.3,7.3,0,0,1,2.12-.2c.31,0,.37,0,.39.31a3.37,3.37,0,0,1-.16.78,4.44,4.44,0,0,1-1.17,2.21,2.78,2.78,0,0,1-1.54,1.09A7.09,7.09,0,0,1,63.91,139.52Z"/><path class="cls-1" d="M55.73,79.31a1.36,1.36,0,0,1-.58.69c-.58.44-1.15.93-1.76,1.33a25.9,25.9,0,0,1-4.64,2.11,17.66,17.66,0,0,1-1.94.71,12.8,12.8,0,0,1-3.11.33,28.3,28.3,0,0,1-3.14-.21c-.85-.08-1.71-.07-2.56-.19-1-.15-2-.42-3-.5a10.73,10.73,0,0,1-1.72-.25c-.58-.14-1.17-.19-1.75-.31-.18,0-.65,0-.75-.17s.08-.28.12-.34a15.17,15.17,0,0,1,1.16-1.44,14.25,14.25,0,0,0,1-1.19c.35-.54.76-1,1.14-1.58a7.59,7.59,0,0,1,3.14-2.23,14.71,14.71,0,0,1,2.47-.86c.89-.24,1.76-.57,2.67-.76a39.92,39.92,0,0,1,5.38-.71,6.3,6.3,0,0,1,2.66.42A11.68,11.68,0,0,1,55,77C55.57,77.6,56.32,78.44,55.73,79.31Z"/><path class="cls-1" d="M56.13,78.7a1.35,1.35,0,0,0-.2-.49,6.7,6.7,0,0,0-.42-1,12.49,12.49,0,0,1-.77-1.13,6.63,6.63,0,0,0-.84-1.28,8.68,8.68,0,0,0-.9-.94c-.24-.21-.52-.35-.78-.54s-.72-.7-1.12-1-.76-.45-1.09-.75-.7-.75-1.06-1.12-1-1-1.48-1.55c-.64-.73-1.19-1.52-1.82-2.25a17.74,17.74,0,0,1-1.78-2.48,9.18,9.18,0,0,1-1.37-3.7,14.1,14.1,0,0,0-.34-1.87,1.6,1.6,0,0,1-.1-.7c.07-.24.24-.1.46-.15s.46-.17.71-.2a2.63,2.63,0,0,1,1,.1,14.32,14.32,0,0,0,1.69.28c.72.11,1.46,0,2.18,0a9.07,9.07,0,0,1,2.73.33,11.33,11.33,0,0,1,1.06.6c.48.27,1,.5,1.44.81s1,.81,1.49,1.15c.23.15.51.29.73.46a4.68,4.68,0,0,1,.8.93,17.71,17.71,0,0,1,1.88,2.89,9.65,9.65,0,0,1,1.07,3.8,21.56,21.56,0,0,1,0,2.21,17,17,0,0,1-.35,1.93,8.34,8.34,0,0,1-1.41,3,12.72,12.72,0,0,0-1.05,1.71C56.24,78.22,56.08,78.41,56.13,78.7Z"/><path class="cls-1" d="M56.74,79c.21,0,.18.17.22.31a3.88,3.88,0,0,0,.47,1c.32.54.74,1,1.11,1.52s.53.83.81,1.22a5.18,5.18,0,0,0,.83.79,8.75,8.75,0,0,0,3.48,2c.64.16,1.29.24,1.93.41a15.89,15.89,0,0,0,2.29.47,23.33,23.33,0,0,0,4.83.28,19.5,19.5,0,0,0,3.58-.74,13.05,13.05,0,0,0,1.84-.68c.21-.1.58-.2.79-.32.42-.24.16-.35-.09-.5-.66-.4-.83-1.3-1.37-1.82a17.54,17.54,0,0,1-1.55-1.49,13.87,13.87,0,0,0-1.46-1.76,3.26,3.26,0,0,0-1-.6,7,7,0,0,1-1.16-.74,6,6,0,0,0-1.51-.86,23.6,23.6,0,0,0-4.92-1,24.11,24.11,0,0,0-3.32-.09,8,8,0,0,0-2.17.23,9.48,9.48,0,0,0-1.94.7,4.46,4.46,0,0,0-.9.59A2.16,2.16,0,0,0,56.74,79Z"/><path class="cls-1" d="M58.05,76c-.34,0,.07-1,.14-1.18.25-.64.47-1.28.66-1.94a20.85,20.85,0,0,1,1-2.48,18.11,18.11,0,0,1,6.92-8.48,24.23,24.23,0,0,1,2.77-1.54c1-.53,2-1.09,3.11-1.53a13.58,13.58,0,0,1,2.05-.59c.66-.16,1.29-.42,2-.56s.56.05.56.58A22.81,22.81,0,0,1,77,62.1a14.38,14.38,0,0,1-1.52,3.74c-.32.67-.67,1.31-1,2a10.35,10.35,0,0,1-.95,1.7A24.7,24.7,0,0,1,71.52,72a9.92,9.92,0,0,1-2.08,1.54A9.09,9.09,0,0,1,67,74.61c-.88.2-1.74.49-2.62.69s-1.94.4-2.91.71a11.87,11.87,0,0,1-1.46.3c-.18,0-.8.08-.79.34C59.27,76.66,59.32,76.67,58.05,76Z"/><path class="cls-1" d="M60.57,77.08a5.51,5.51,0,0,0,.21,1,7.37,7.37,0,0,0,.39,1.33"/><path class="cls-1" d="M66.65,77.35c.08,0,.05.08.05.14,0,.27,0,.51.07.79,0,.45.08.91.1,1.36,0,.08,0,.5.11.59"/><path class="cls-1" d="M71.15,78.27a.67.67,0,0,1,.15.27,7.29,7.29,0,0,1,.36,1.27,7.9,7.9,0,0,1,.15,1.27,2.59,2.59,0,0,0,0,.51"/><path class="cls-1" d="M59.92,70.46a.63.63,0,0,0,.25,0,9.56,9.56,0,0,1,1-.23c.42,0,.85-.07,1.27-.08a2.11,2.11,0,0,0,.65-.06"/><path class="cls-1" d="M62.8,65.47c.19.24.71.07.94.06.88,0,1.76-.18,2.64-.17"/><path class="cls-1" d="M67.24,61.73a2.08,2.08,0,0,1,.9.25,10.45,10.45,0,0,1,2,.89"/><path class="cls-1" d="M58.84,67.69a.41.41,0,0,1-.16,0,3.16,3.16,0,0,0-.68,0,17.64,17.64,0,0,1-2.85-.11"/><path class="cls-1" d="M56.29,62.32a6.75,6.75,0,0,1-1.06.1l-1,0a10.57,10.57,0,0,0-1.55.26"/><path class="cls-1" d="M52.05,59a.63.63,0,0,1-.22,0,1,1,0,0,0-.61,0,6,6,0,0,0-2.1,1"/><path class="cls-1" d="M36.27,76.54a1.85,1.85,0,0,1-.08.34,4,4,0,0,0-.19,1,5.31,5.31,0,0,0,.12,1.31,8.7,8.7,0,0,1,.27,1.07"/><path class="cls-1" d="M42.78,75.45a.2.2,0,0,1-.07.19,1.59,1.59,0,0,0-.25.62,17.81,17.81,0,0,0-.22,2"/><path class="cls-1" d="M49.12,74.47v0s-.07,0-.11,0a1.66,1.66,0,0,0-.56.61,4.6,4.6,0,0,0-.51,1.1,1.88,1.88,0,0,0-.17.74"/><path class="cls-1" d="M53.38,355c0-.27,0-.53,0-.8a9,9,0,0,1,.6-2.63,9.88,9.88,0,0,1,.68-2.15c.18-.32.4-.62.59-.93s.36-.7.6-1a16.32,16.32,0,0,1,3.28-3.7,16.56,16.56,0,0,0,1.62-1.45,13.56,13.56,0,0,1,1.46-1.15c.45-.34.84-.77,1.26-1.16.21-.2.6-.62.92-.68s.27.2.21.43c-.11.46-.21,1-.33,1.44a23,23,0,0,1-.92,3,34.77,34.77,0,0,1-2.23,4.19,20,20,0,0,1-2.41,3.18,13.74,13.74,0,0,1-1.9,2,3.91,3.91,0,0,1-.85.59l-.65.27A4.61,4.61,0,0,1,53.38,355Z"/><path class="cls-1" d="M64.62,343.21c.28.05.58-.22.78-.37a6.45,6.45,0,0,1,1.24-.74c.49-.23,1.36-1,2-.88.14,0,.17,0,.24.11a1,1,0,0,1,0,.45,10.66,10.66,0,0,1-1.4,3.3,18.45,18.45,0,0,1-4.89,5.13c-.83.62-1.72,1.19-2.56,1.79-.29.21-3.33,1.8-3.64,2"/><path class="cls-1" d="M49.63,354a5.85,5.85,0,0,1-.23-1.1c-.19-1-.23-2-.37-3a23.69,23.69,0,0,0-1.22-5,32.9,32.9,0,0,0-2-4.18c-.78-1.42-1.34-3-2.15-4.36-.54-.94-1.21-1.8-1.79-2.72-.44-.7-.91-1.35-1.4-2-.12-.17-.71-1.22-1-1.22-.07.27-.06.63-.1.91a9.1,9.1,0,0,0,.31,3.41c.25,1.07.64,2.11.93,3.17.35,1.29.44,2.66.86,3.93.29.89.69,1.74,1,2.62.41,1.07.82,2.14,1.3,3.18s1.11,2.06,1.64,3.12a4.25,4.25,0,0,0,.58,1.1c.2.21.41.4.59.63.33.43.59,1.15,1.05,1.47a4.6,4.6,0,0,0,.79.35C48.36,354.34,48.3,354.34,49.63,354Z"/><path class="cls-1" d="M47.17,353.66c-.16-.16-.3-.4-.44-.57a2.52,2.52,0,0,0-.67-.68,9.47,9.47,0,0,0-1.32-.62A21.58,21.58,0,0,0,42,350.41a18.94,18.94,0,0,0-2.81-.55,8.72,8.72,0,0,1-1-.16,7.46,7.46,0,0,0-1.09-.25l-.9,0-.57-.08c-.38,0-.3.39-.31.67a1.42,1.42,0,0,0,.47,1.15,6.86,6.86,0,0,0,1.89,1.46,11.28,11.28,0,0,0,1.94.86c.68.21,1.35.37,2,.6a9,9,0,0,0,1.56.34,9.33,9.33,0,0,1,1.44.46,4,4,0,0,0,1.19.08,8.45,8.45,0,0,0,1,.1"/><path class="cls-1" d="M57.27,76.58l.24,0a14.72,14.72,0,0,1,1.2-3.43A22.16,22.16,0,0,0,60,67.69c.06-.41,0-.75,0-1.13.05-.64.66-1.19,1-1.69a12.74,12.74,0,0,0,1.89-3,10.71,10.71,0,0,0,.32-3.51,6.8,6.8,0,0,0-.42-2.85A14.32,14.32,0,0,1,61.86,54a10.4,10.4,0,0,1-.37-1.27,10.4,10.4,0,0,1,0-3.2c.2-1.36,1.37-1.93,2.6-2.33a24.66,24.66,0,0,1,6.16-.84,48.15,48.15,0,0,0,5.58-.59,10.81,10.81,0,0,0,3.84-1.84c1.75-1,1.8-3.46,1.37-5.23a21.47,21.47,0,0,1-.28-5.55,4.73,4.73,0,0,1,.61-1.88c.22-.49.37-1,.61-1.5.4-.81,1-1.5,1.42-2.29"/><path class="cls-1" d="M82.41,13.89c.22.27-.08.46-.22.68a4.5,4.5,0,0,0-.44,1.22,17,17,0,0,0-.37,2.46,22.8,22.8,0,0,1-.69,2.48A4.4,4.4,0,0,0,81,23.47a6.08,6.08,0,0,0,1.21,2.47,3.36,3.36,0,0,0,2,.8c.37,0,.69.06,1,.12a4.51,4.51,0,0,0,1,0,14.55,14.55,0,0,0,2.26-.35,3.71,3.71,0,0,0,1.84-1,14.68,14.68,0,0,1,1.4-1.23,4,4,0,0,0,.9-1.07,6.11,6.11,0,0,0,.65-1.2c.24-.57.54-1.08.81-1.61A9.47,9.47,0,0,1,94.87,19c.14-.18.31-.35.46-.53a1.26,1.26,0,0,1,.49-.35c.17-.09.2-.2.34-.29a5.51,5.51,0,0,1,1.09-.43,6.84,6.84,0,0,1,1.64-.54,9.48,9.48,0,0,1,3.5.28c.17,0,.43.19.58,0s-.18-.41-.34-.56c-.55-.51-.94-1.19-1.44-1.67a5.2,5.2,0,0,0,1.56-1.38c.24-.31.46-.53.05-.84-.22-.17-.48-.23-.72-.41s-.82-.24-1.26-.43a6.3,6.3,0,0,0-1.73-.48c-.32,0-.66,0-1-.05s-.84.05-.77-.41a6.72,6.72,0,0,0,.26-1.4c0-.21,0-.42,0-.63s.13-.75,0-1a19.16,19.16,0,0,1-2.15.28,11,11,0,0,1-3.18-.15c-.68-.12-1-.72-1.19-1.34A10.13,10.13,0,0,0,90.46,5c-.15-.25-.34-.44-.48-.69-.34.29-.36,1.16-.69,1.55s-.61.14-1-.09a16.49,16.49,0,0,0-2.26-1.24c-.39-.17-.79-.34-1.18-.53s-.64-.45-1-.47c-.29.28.07,1.28.19,1.62a1.18,1.18,0,0,1,0,.9,3,3,0,0,1-1.41,1c-1,.4-2,.77-3,1.15-.45.17-1.65.46-1.13,1.14a1.93,1.93,0,0,0,.76.52,3,3,0,0,1,1,.31c.21.16.62.36.74.6l.27,0c.08.19.26.22.36.38a3.67,3.67,0,0,1,.21.59l.4,1.06a4.13,4.13,0,0,1,.36,1C82.69,14.1,82.54,14.28,82.41,13.89Z"/><path class="cls-1" d="M101.66,16.64c-.1-.18-.44-.17-.64-.22-.53-.14-1.13-.28-1.64-.48a20.51,20.51,0,0,1-2.69-1.39c-.33-.19-.42-.33-.77-.24a6.39,6.39,0,0,0-.78.3,8.14,8.14,0,0,0-1.4.93,4.93,4.93,0,0,1-1.08.72c-.3.08-.34,0-.52-.23a6.32,6.32,0,0,1-.8-2.1c-.1-.4-.18-1.28-.57-1.48s-.63.08-.86.17c-.6.23-1.09.55-1.66.81-.29.13-.75.42-1.06.2s-.45-1.09-.59-1.46a7.43,7.43,0,0,0-.72-1.82,4.63,4.63,0,0,0-.92.34,5.34,5.34,0,0,1-1.53.25,2.69,2.69,0,0,1-1-.08,3.57,3.57,0,0,1-1-.4"/><path class="cls-2" d="M91.67,12.93a2.29,2.29,0,0,0,.78-.61c.32-.29.55-.67.88-1a14.88,14.88,0,0,1,2-1.58c.62-.39,1.32-.67,2-1,1-.51,2.11-1.05,3.2-1.46a20,20,0,0,1,2.82-.71"/><path class="cls-6" d="M103.47,6.6a.86.86,0,0,1,.13-1c.31-.45.52-.94,1.14-.83a1.46,1.46,0,0,1,1.06.51,2.83,2.83,0,0,1,.18.47,1.26,1.26,0,0,1,.16.48c0,.15-.07.34-.09.49a.82.82,0,0,1-.23.5,1.49,1.49,0,0,1-.69.54c-.37.13-.63-.07-.87-.34a3.26,3.26,0,0,1-.52-.58"/><path class="cls-2" d="M90,12.29a2.29,2.29,0,0,0,.52-.85c.19-.39.28-.82.48-1.21A14.88,14.88,0,0,1,92.28,8c.45-.58,1-1.1,1.5-1.63.8-.85,1.6-1.73,2.47-2.5a20,20,0,0,1,2.38-1.66"/><path class="cls-6" d="M98.74,2.19a.86.86,0,0,1-.22-.94c.13-.53.15-1.06.77-1.18a1.46,1.46,0,0,1,1.17.1,2.83,2.83,0,0,1,.34.37,1.26,1.26,0,0,1,.32.4c0,.15.05.34.09.49a.82.82,0,0,1,0,.55,1.49,1.49,0,0,1-.46.75.79.79,0,0,1-.94,0,3.26,3.26,0,0,1-.7-.36"/><path class="cls-2" d="M84,26.51c0-.11.09-.16.12-.27s0-.28,0-.4c0-.3.15-.6.22-.9a2.77,2.77,0,0,0,0-1,10.08,10.08,0,0,0-.72-2.29c-.25-.68.15-1.15.52-1.67a4.19,4.19,0,0,0,.6-1.92,3.85,3.85,0,0,0-.18-1.87c-.06-.18-.07-.37-.12-.55a4.25,4.25,0,0,0-.5-1.07c-.18-.28-.42-.51-.61-.79s-.49-.82-.77-1.21"/><path class="cls-2" d="M58.79,154.18a2.16,2.16,0,0,0-.12-.8,6.76,6.76,0,0,0-.84-1.51,9.84,9.84,0,0,1-.74-3c-.16-.64-.45-1.24-.64-1.88-.29-1-.34-2-.72-2.89a18.24,18.24,0,0,1-.59-2.54c-.25-1-.42-2.05-.6-3.08-.14-.81-.56-1.55-.72-2.36s-.24-1.68-.42-2.52a21.5,21.5,0,0,0-.54-2.62,8.73,8.73,0,0,1-.48-1.33c-.08-.48,0-.93-.17-1.43-.17-.69-.53-1.31-.69-2,0-.19-.09-.38-.15-.56a10.52,10.52,0,0,1-.74-2.58c0-1.13-.18-2.26-.24-3.4s0-2.11,0-3.15a8.7,8.7,0,0,1,0-1.8c.08-.37.24-.7.31-1.08a19.41,19.41,0,0,1,.66-2.57,14.55,14.55,0,0,0,.35-1.7,4.8,4.8,0,0,1,.43-.93,7.35,7.35,0,0,0,.17-.93,4.65,4.65,0,0,1,.3-.74,5.38,5.38,0,0,0,.25-1q.1-.51.18-1a4.14,4.14,0,0,1,.62-1.19"/><path class="cls-2" d="M42.62,179.37a3.38,3.38,0,0,0-.33-1.5c-.45-1.05-1-2.05-1.5-3.09a10,10,0,0,0-.87-1.63c-.26-.37-.59-.69-.88-1.05s-.52-.9-.82-1.34a11.63,11.63,0,0,0-1-1.24c-1.18-1.31-2.47-2.47-3.72-3.72-.73-.73-1.32-1.52-2-2.29s-1.53-1.81-2.35-2.66c-1.2-1.24-2.28-2.58-3.41-3.89a12.62,12.62,0,0,1-.83-1.11,10.61,10.61,0,0,0-1-1,16,16,0,0,1-2-2.69,5.61,5.61,0,0,1-.34-1c-.11-.3-.25-.58-.38-.87a7.54,7.54,0,0,0-.61-1.18,5.25,5.25,0,0,1-.65-1.24c-.12-.36-.4-.71-.34-1.11"/><path class="cls-2" d="M58.5,311.73v.1c.33-.22.17-.95.21-1.29a26.2,26.2,0,0,0,.13-3.3c0-.66,0-1.32,0-2s-.16-1.17-.18-1.77a15,15,0,0,0,0-1.7c-.1-.63-.21-1.26-.26-1.9-.17-2-.37-4-.37-6a63.09,63.09,0,0,1,.08-6.39,17,17,0,0,0-.1-3.58,9.84,9.84,0,0,0-.3-2.21,11.55,11.55,0,0,1-.66-2c-.2-1.23-.59-2.37-.84-3.58a11.3,11.3,0,0,0-.73-2.3c-.31-.69-.26-1.44-.52-2.16a7.28,7.28,0,0,1-.42-1.34,10.59,10.59,0,0,1,0-1.41c0-.33,0-.66,0-1a6,6,0,0,1-.17-1.17"/><path class="cls-2" d="M63.24,273.55c-.06-.2.29-.65.38-.82a10.7,10.7,0,0,0,.8-1.87,10.09,10.09,0,0,0,.55-2.56c0-.63,0-1.25.08-1.88a6.56,6.56,0,0,1,.09-1.33,13.19,13.19,0,0,1,.46-1.36c.09-.23.19-.45.28-.68a4.41,4.41,0,0,0,.25-1.29,10.38,10.38,0,0,1,.47-2.52"/><path class="cls-1" d="M37.69,234.67A3.52,3.52,0,0,0,39.43,233c.39-1.11-.94-.74-1.49-1.43-1.32-1.66,1.66-2.2,1.56-3.7s-2.25-1.71-1.19-3.33c.45-.68,1.41-.47,1.84-1.05.56-.75-.41-2.33-.31-3.16"/><path class="cls-1" d="M65,166.33a2.14,2.14,0,0,0,1.18-3c-.33-.48-1-.63-.84-1.35s1.13-.56,1.45-1.23c.72-1.53-1-2.05-1.62-3.06s.11-.94.75-1.44c1.09-.87.27-1.22-.19-2.17"/><path class="cls-1" d="M62.54,324.87c-.13-.75.49-1.33.66-1.93a3.3,3.3,0,0,0-.1-1.77c-.2-.88,0-1,.94-1.4.59-.26,1.27-.33,1.13-1.2-.1-.63-1-1-1.12-1.66-.29-1.09.38-.78,1.1-1,1.26-.38.73-2.91.73-4"/><path class="cls-1" d="M61.66,41.87a2.79,2.79,0,0,1,.83-1.29,1.46,1.46,0,0,1,1.2-.3c.55.21.74,1.15,1.38,1.29s1.2-1.13,1.69-1.45,1,.14,1.44.58c.15.16.52.81.78.75s.44-.64.51-.78c.25-.51.82-1.21,1.47-1,.46.18.67.86,1.19,1a8.32,8.32,0,0,0,1.84,0"/></g></g></svg>