<?xml version="1.0" encoding="utf-8"?>
<svg version="1.1" id="Layer_1" x="0px" y="0px" width="512px" height="512px" viewBox="0 0 512 512" enable-background="new 0 0 266.893 266.895" xmlns="http://www.w3.org/2000/svg">
  <path id="Blue_1_" fill="#3C5A99" d="M 483.744 512.002 C 499.347 512.002 512 499.349 512 483.742 L 512 28.256 C 512 12.647 499.349 -0.002 483.744 -0.002 L 28.258 -0.002 C 12.649 -0.002 0 12.647 0 28.256 L 0 483.742 C 0 499.347 12.647 512.002 28.258 512.002 L 483.744 512.002 Z"/>
  <path id="f" fill="#FFFFFF" d="M 353.273 512.002 L 353.273 313.726 L 419.824 313.726 L 429.789 236.454 L 353.273 236.454 L 353.273 187.121 C 353.273 164.749 359.485 149.503 391.566 149.503 L 432.483 149.485 L 432.483 80.373 C 425.407 79.431 401.118 77.327 372.859 77.327 C 313.865 77.327 273.476 113.338 273.476 179.468 L 273.476 236.454 L 206.753 236.454 L 206.753 313.726 L 273.476 313.726 L 273.476 512.002 L 353.273 512.002 Z"/>
</svg>