<?xml version="1.0" encoding="utf-8"?>
<svg id="Layer_1" viewBox="0 0 512 512" width="512px" height="512px" xmlns="http://www.w3.org/2000/svg">
  <style>.st0{fill:#02303a}.st1{fill:#22da27}.st2{fill:#fff}</style>
  <path class="st0" d="M 502.786 227.125 C 514.38 200.46 514.09 174.084 507.134 153.216 C 498.439 127.71 462.788 94.088 451.484 107.421 C 450.035 109.16 429.457 106.841 426.268 111.189 C 421.341 117.565 424.239 119.594 426.558 121.913 C 433.804 128.29 452.064 135.246 460.469 156.984 C 463.948 166.259 472.063 187.707 457.861 200.75 C 441.92 215.242 423.95 218.72 350.33 150.317 C 272.073 77.567 167.151 107.131 132.37 118.725 C 97.589 130.318 81.647 141.912 95.27 168.577 C 113.82 205.097 107.733 193.794 125.993 223.937 C 154.687 271.761 217.873 201.909 217.873 201.909 C 170.918 272.63 130.631 255.53 115.269 230.893 C 101.357 208.575 90.633 183.069 90.633 183.069 C -28.202 225.966 3.97 414.942 3.97 414.942 L 63.098 414.942 C 78.169 345.38 132.08 347.989 141.065 414.942 L 185.99 414.942 C 225.698 279.007 310.912 414.942 310.912 414.942 L 361.344 414.942 C 361.344 342.482 353.808 315.237 390.908 310.02 C 454.093 301.614 483.657 272.051 502.786 227.125 Z"/>
  <path class="st0" d="M 511.771 178.142 C 501.047 179.012 490.323 180.751 480.179 183.649 C 479.889 183.939 479.599 184.519 479.309 184.809 C 474.672 190.026 468.875 194.953 462.498 197.851 C 461.629 198.431 460.759 198.721 459.89 199.011 L 458.151 200.75 C 442.21 215.242 422.79 218.72 350.62 150.317 C 273.232 76.988 167.44 107.131 132.659 118.725 C 97.879 130.318 81.937 141.912 95.56 168.577 C 114.11 205.097 108.023 193.794 126.283 223.937 C 154.977 271.761 218.163 201.909 218.163 201.909 C 171.208 272.63 130.92 255.53 115.559 230.893 C 101.646 208.575 90.922 183.069 90.922 183.069 C -27.912 225.966 4.26 414.942 4.26 414.942 L 63.387 414.942 C 78.459 345.38 132.37 347.989 141.355 414.942 L 186.28 414.942 C 225.988 279.007 311.201 414.942 311.201 414.942 L 361.634 414.942 C 361.634 342.482 354.098 315.237 391.198 310.02 C 454.673 301.325 483.947 271.761 503.076 227.125 C 510.032 210.315 512.641 193.504 511.771 178.142 Z"/>
  <g transform="matrix(2.898409, 0, 0, 2.898409, -0.088061, 96.986374)">
    <path class="st2" d="M102.7 34.5s9.4 3.1 22 7.3c-.7 3.4-7 9.9-15.1 7.1-10.8-3.5-6.9-14.4-6.9-14.4z"/>
    <ellipse transform="rotate(-6.066 113.363 41.285)" class="st0" cx="113.4" cy="41.3" rx="5.7" ry="5.5"/>
  </g>
  <path class="st0" d="M 426.558 122.203 C 428.587 123.942 431.196 125.681 433.804 127.42 C 445.977 117.276 461.919 117.565 475.541 112.058 C 463.658 101.045 444.528 92.639 438.731 99.595 C 437.282 101.334 429.746 107.131 426.558 111.479 C 421.341 117.855 423.95 119.884 426.558 122.203 Z"/>
</svg>