<?xml version="1.0" encoding="utf-8"?>
<svg width="512px" height="512px" id="svg3070" version="1.1" viewBox="0 0 512 512" xmlns="http://www.w3.org/2000/svg">
  <g id="layer1" transform="matrix(6.714931, 0, 0, 6.714931, -2569.020996, -2655.621826)">
    <g transform="matrix(1.018827,0,0,-1.018827,170.5996,498.03288)" id="g3019">
      <path d="M 208.302 95.297 C 208.302 98.257 210.763 100.658 213.798 100.658 L 277.174 100.658 C 280.209 100.658 282.67 98.257 282.67 95.297 L 282.67 31.18 C 282.67 28.219 280.209 25.819 277.174 25.819 L 213.798 25.819 C 210.763 25.819 208.302 28.219 208.302 31.18 L 208.302 95.297 Z" style="fill:#006699;fill-opacity:1;fill-rule:nonzero;stroke:none" id="path14"/>
      <path d="M 230.845 38.01 L 230.845 71.804 L 219.613 71.804 L 219.613 38.01 L 230.845 38.01 Z M 225.229 76.418 C 229.146 76.418 231.584 79.013 231.584 82.256 C 231.511 85.572 229.146 88.095 225.303 88.095 C 221.461 88.095 218.949 85.572 218.949 82.256 C 218.949 79.013 221.386 76.418 225.156 76.418 L 225.229 76.418 Z" style="fill:#ffffff;fill-opacity:1;fill-rule:evenodd;stroke:none" id="path28"/>
      <path d="M 237.061 38.01 L 248.293 38.01 L 248.293 56.882 C 248.293 57.892 248.366 58.901 248.663 59.623 C 249.475 61.641 251.323 63.731 254.426 63.731 C 258.49 63.731 260.116 60.632 260.116 56.089 L 260.116 38.01 L 271.348 38.01 L 271.348 57.387 C 271.348 67.767 265.806 72.597 258.416 72.597 C 252.357 72.597 249.696 69.21 248.218 66.903 L 248.293 66.903 L 248.293 71.804 L 237.061 71.804 C 237.208 68.633 237.061 38.01 237.061 38.01 Z" style="fill:#ffffff;fill-opacity:1;fill-rule:evenodd;stroke:none" id="path30"/>
    </g>
  </g>
</svg>