<?xml version="1.0" encoding="utf-8"?>
<svg version="1.1" id="Layer_1" x="0px" y="0px" viewBox="0 0 512 512" style="enable-background:new 0 0 48 48;" width="512px" height="512px" xmlns="http://www.w3.org/2000/svg">
  <path style="fill:#5D4037;" d="M 486.4 170.24 C 486.4 432.64 256 512 256 512 C 256 512 25.6 432.64 25.6 170.24 C 25.6 138.24 28.16 111.36 30.72 89.6 C 34.56 57.6 56.32 32 87.04 24.32 C 126.72 12.8 189.44 0 256 0 C 322.56 0 385.28 12.8 426.24 24.32 C 456.96 32 478.72 58.88 482.56 89.6 C 483.84 111.36 486.4 139.52 486.4 170.24 Z"/>
  <path style="fill:#4CAF50;" d="M 256 38.4 C 318.72 38.4 377.6 51.2 416 61.44 C 431.36 65.28 441.6 78.08 444.16 94.72 C 446.72 119.04 448 144.64 448 170.24 C 448 369.92 300.8 450.56 256 469.76 C 211.2 449.28 64 368.64 64 170.24 C 64 144.64 65.28 119.04 67.84 94.72 C 69.12 78.08 80.64 65.28 96 61.44 C 134.4 51.2 193.28 38.4 256 38.4 M 256 0 C 189.44 0 126.72 12.8 85.76 24.32 C 56.32 32 33.28 58.88 30.72 89.6 C 28.16 111.36 25.6 139.52 25.6 170.24 C 25.6 432.64 256 512 256 512 C 256 512 486.4 432.64 486.4 170.24 C 486.4 138.24 483.84 111.36 481.28 89.6 C 477.44 57.6 455.68 32 424.96 24.32 C 385.28 12.8 322.56 0 256 0 L 256 0 Z"/>
  <rect x="243.2" y="307.2" style="fill:#DCEDC8;" width="25.6" height="102.4"/>
  <path style="fill:#4CAF50;" d="M 256 76.8 C 256 76.8 179.2 140.8 179.2 243.2 C 179.2 309.76 221.44 352 243.2 371.2 L 256 332.8 L 268.8 371.2 C 290.56 352 332.8 309.76 332.8 243.2 C 332.8 140.8 256 76.8 256 76.8 Z"/>
  <path style="fill:#81C784;" d="M 256 76.8 C 256 76.8 179.2 140.8 179.2 243.2 C 179.2 309.76 221.44 352 243.2 371.2 L 256 332.8 L 256 76.8 Z"/>
</svg>