<?xml version="1.0" encoding="utf-8"?>
<svg width="512px" height="512px" viewBox="0 0 512 512" xmlns="http://www.w3.org/2000/svg">
  <defs>
    <radialGradient id="c" cx="158.429" cy="578.088" r="65" gradientUnits="userSpaceOnUse" gradientTransform="matrix(0, -7.80662, 7.260762, 0, -4061.358485, 1788.230347)">
      <stop offset="0" stop-color="#fd5"/>
      <stop offset="0.1" stop-color="#fd5"/>
      <stop offset="0.5" stop-color="#ff543e"/>
      <stop offset="1" stop-color="#c837ab"/>
    </radialGradient>
    <radialGradient id="d" cx="147.694" cy="473.455" r="65" gradientUnits="userSpaceOnUse" gradientTransform="matrix(0.684926, 3.421713, -14.104124, 2.824828, 6490.745274, -1805.911621)">
      <stop offset="0" stop-color="#3771c8"/>
      <stop stop-color="#3771c8" offset="0.128"/>
      <stop offset="1" stop-color="#60f" stop-opacity="0"/>
    </radialGradient>
  </defs>
  <path fill="url(#c)" d="M 256.083 0 C 149.206 0 117.948 0.11 111.872 0.614 C 89.939 2.438 76.291 5.893 61.422 13.298 C 49.963 18.989 40.926 25.586 32.007 34.835 C 15.764 51.701 5.92 72.45 2.356 97.115 C 0.623 109.089 0.119 111.532 0.017 172.692 C -0.022 193.08 0.017 219.911 0.017 255.9 C 0.017 362.72 0.135 393.955 0.647 400.02 C 2.419 421.368 5.766 434.8 12.854 449.492 C 26.4 477.615 52.271 498.726 82.749 506.605 C 93.302 509.322 104.957 510.819 119.921 511.528 C 126.26 511.804 190.878 512 255.536 512 C 320.193 512 384.851 511.922 391.033 511.607 C 408.359 510.792 418.419 509.44 429.544 506.565 C 460.219 498.648 485.617 477.851 499.438 449.334 C 506.388 434.997 509.913 421.053 511.507 400.82 C 511.854 396.408 512 326.073 512 255.833 C 512 185.581 511.842 115.376 511.496 110.963 C 509.88 90.404 506.357 76.578 499.182 61.965 C 493.295 50.003 486.759 41.07 477.269 31.936 C 460.333 15.755 439.62 5.909 414.939 2.348 C 402.98 0.618 400.598 0.106 339.405 0 L 256.083 0 Z"/>
  <path fill="url(#d)" d="M 256.083 0 C 149.206 0 117.948 0.11 111.872 0.614 C 89.939 2.438 76.291 5.893 61.422 13.298 C 49.963 18.989 40.926 25.586 32.007 34.835 C 15.764 51.701 5.92 72.45 2.356 97.115 C 0.623 109.089 0.119 111.532 0.017 172.692 C -0.022 193.08 0.017 219.911 0.017 255.9 C 0.017 362.72 0.135 393.955 0.647 400.02 C 2.419 421.368 5.766 434.8 12.854 449.492 C 26.4 477.615 52.271 498.726 82.749 506.605 C 93.302 509.322 104.957 510.819 119.921 511.528 C 126.26 511.804 190.878 512 255.536 512 C 320.193 512 384.851 511.922 391.033 511.607 C 408.359 510.792 418.419 509.44 429.544 506.565 C 460.219 498.648 485.617 477.851 499.438 449.334 C 506.388 434.997 509.913 421.053 511.507 400.82 C 511.854 396.408 512 326.073 512 255.833 C 512 185.581 511.842 115.376 511.496 110.963 C 509.88 90.404 506.357 76.578 499.182 61.965 C 493.295 50.003 486.759 41.07 477.269 31.936 C 460.333 15.755 439.62 5.909 414.939 2.348 C 402.98 0.618 400.598 0.106 339.405 0 L 256.083 0 Z"/>
  <path fill="#fff" d="M 255.965 66.959 C 204.633 66.959 198.191 67.184 178.03 68.102 C 157.908 69.024 144.173 72.21 132.155 76.885 C 119.724 81.714 109.179 88.174 98.673 98.687 C 88.159 109.195 81.701 119.744 76.858 132.174 C 72.172 144.199 68.982 157.942 68.077 178.062 C 67.175 198.228 66.939 204.676 66.939 256.022 C 66.939 307.368 67.167 313.792 68.081 333.959 C 69.006 354.086 72.192 367.825 76.862 379.846 C 81.693 392.28 88.151 402.829 98.661 413.337 C 109.163 423.854 119.708 430.33 132.132 435.158 C 144.157 439.834 157.896 443.02 178.014 443.942 C 198.175 444.86 204.613 445.085 255.941 445.085 C 307.277 445.085 313.7 444.86 333.861 443.942 C 353.983 443.02 367.733 439.834 379.759 435.158 C 392.187 430.33 402.716 423.854 413.218 413.337 C 423.732 402.829 430.189 392.28 435.033 379.85 C 439.679 367.825 442.869 354.082 443.813 333.963 C 444.72 313.796 444.956 307.368 444.956 256.022 C 444.956 204.676 444.72 198.232 443.813 178.066 C 442.869 157.938 439.679 144.199 435.033 132.178 C 430.189 119.744 423.732 109.195 413.218 98.687 C 402.704 88.17 392.19 81.71 379.747 76.885 C 367.698 72.21 353.955 69.024 333.833 68.102 C 313.672 67.184 307.254 66.959 255.906 66.959 Z M 239.009 101.031 C 244.042 101.023 249.657 101.031 255.965 101.031 C 306.431 101.031 312.411 101.212 332.341 102.117 C 350.77 102.96 360.771 106.04 367.434 108.628 C 376.255 112.055 382.543 116.151 389.153 122.769 C 395.77 129.385 399.864 135.688 403.299 144.511 C 405.886 151.167 408.969 161.172 409.808 179.605 C 410.713 199.536 410.909 205.522 410.909 255.979 C 410.909 306.435 410.713 312.421 409.808 332.352 C 408.965 350.786 405.886 360.79 403.299 367.447 C 399.872 376.27 395.77 382.552 389.153 389.165 C 382.539 395.782 376.258 399.878 367.434 403.305 C 360.779 405.905 350.77 408.977 332.341 409.82 C 312.415 410.726 306.431 410.923 255.965 410.923 C 205.495 410.923 199.514 410.726 179.589 409.82 C 161.16 408.97 151.159 405.889 144.492 403.301 C 135.672 399.874 129.371 395.778 122.756 389.161 C 116.14 382.544 112.045 376.258 108.612 367.43 C 106.024 360.775 102.941 350.77 102.102 332.336 C 101.197 312.405 101.016 306.419 101.016 255.931 C 101.016 205.444 101.197 199.489 102.102 179.558 C 102.945 161.124 106.024 151.12 108.612 144.456 C 112.037 135.632 116.14 129.33 122.756 122.714 C 129.371 116.096 135.672 112 144.492 108.565 C 151.155 105.966 161.16 102.893 179.589 102.046 C 197.025 101.259 203.782 101.023 239.009 100.983 Z M 356.857 132.422 C 344.335 132.422 334.175 142.573 334.175 155.102 C 334.175 167.628 344.335 177.79 356.857 177.79 C 369.379 177.79 379.539 167.628 379.539 155.102 C 379.539 142.577 369.379 132.414 356.857 132.414 Z M 255.965 158.93 C 202.361 158.93 158.899 202.403 158.899 256.022 C 158.899 309.641 202.361 353.094 255.965 353.094 C 309.569 353.094 353.014 309.641 353.014 256.022 C 353.014 202.403 309.565 158.93 255.961 158.93 Z M 255.965 193.001 C 290.759 193.001 318.969 221.215 318.969 256.022 C 318.969 290.826 290.759 319.042 255.965 319.042 C 221.167 319.042 192.961 290.826 192.961 256.022 C 192.961 221.215 221.167 193.001 255.965 193.001 Z"/>
</svg>