<?xml version="1.0" encoding="utf-8"?>
<svg width="512px" height="512px" viewBox="0 0 512 512" preserveAspectRatio="xMidYMid" xmlns="http://www.w3.org/2000/svg">
  <path d="M 478.067 204.8 L 317.17 204.8 C 309.095 204.797 302.548 198.252 302.544 190.176 L 302.544 22.49 C 302.544 10.073 292.475 0 280.063 0 L 222.627 0 C 210.208 0 200.144 10.073 200.144 22.49 L 200.144 189.16 C 200.144 197.807 193.154 204.836 184.506 204.874 L 131.779 205.125 C 123.058 205.173 115.973 198.097 115.99 189.383 L 116.317 22.528 C 116.345 10.092 106.272 0 93.836 0 L 36.447 0 C 24.025 0 13.964 10.073 13.964 22.49 L 13.964 492.032 C 13.964 503.064 22.9 512 33.922 512 L 478.067 512 C 489.099 512 498.035 503.064 498.035 492.032 L 498.035 224.768 C 498.035 213.736 489.099 204.8 478.067 204.8 Z M 402.617 381.095 C 402.617 395.551 390.897 407.272 376.441 407.272 L 331.05 407.272 C 316.592 407.272 304.872 395.551 304.872 381.095 L 304.872 335.703 C 304.872 321.246 316.592 309.526 331.05 309.526 L 376.441 309.526 C 390.897 309.526 402.617 321.246 402.617 335.703 L 402.617 381.095 Z" fill="#F60"/>
</svg>