<?xml version="1.0" encoding="utf-8"?>
<svg width="512px" height="512px" viewBox="0 0 512 512" xmlns="http://www.w3.org/2000/svg">
  <defs>
    <style>.a{fill:#68bd45;}</style>
  </defs>
  <title>Asset 1</title>
  <path class="a" d="M 505.416 225.32 L 404.587 30.791 C 395.834 13.895 374.336 0 356.829 0 L 155.171 0 C 137.714 0 116.166 13.895 107.413 30.736 L 6.584 225.264 C -2.195 242.161 -2.195 269.728 6.584 286.736 L 107.413 481.264 C 116.166 498.161 137.664 512 155.171 512 L 356.829 512 C 374.286 512 395.809 498.105 404.587 481.264 L 505.416 286.736 C 514.195 269.867 514.195 242.244 505.416 225.32 Z M 234.203 107.602 C 233.65 89.772 250.626 77.959 264.759 86.34 C 271.776 90.5 276.051 98.751 275.777 107.602 L 275.777 246.023 C 276.33 263.853 259.354 275.667 245.221 267.285 C 238.203 263.125 233.929 254.875 234.203 246.023 Z M 255.002 402.953 C 146.515 402.855 78.805 271.926 133.125 167.281 C 142.712 148.812 155.578 132.713 170.933 119.969 C 182.345 110.504 198.675 118.354 200.326 134.1 C 201.092 141.409 198.301 148.617 193.004 153.011 C 128.738 206.173 140.218 316.918 213.666 352.353 C 282.321 385.478 358.956 329.387 358.949 246.023 C 358.861 209.28 343.21 174.737 316.727 152.844 C 305.207 143.473 307.11 123.723 320.153 117.293 C 326.206 114.308 333.226 115.147 338.573 119.496 C 425.888 191.283 410.717 341.473 311.268 389.839 C 293.521 398.47 274.368 402.936 255.002 402.953 Z"/>
</svg>