<?xml version="1.0" encoding="utf-8"?>
<svg viewBox="0 0 512 512" width="512px" height="512px" xmlns="http://www.w3.org/2000/svg">
  <title>logo-on-white-bg</title>
  <path fill="#FFF" d="M 256 0 L 482.269 127.985 L 482.269 384.014 L 256 512 L 29.731 384.014 L 29.731 127.985 Z"/>
  <path fill="#8ED6FB" d="M 441.868 375.186 L 263.484 476.101 L 263.484 397.52 L 374.631 336.363 L 441.868 375.186 Z M 454.088 364.136 L 454.088 153.126 L 388.838 190.838 L 388.838 326.482 L 454.088 364.136 Z M 69.43 375.186 L 247.815 476.101 L 247.815 397.52 L 136.61 336.363 L 69.43 375.186 Z M 57.211 364.136 L 57.211 153.126 L 122.46 190.838 L 122.46 326.482 L 57.211 364.136 Z M 64.87 139.445 L 247.815 35.957 L 247.815 111.907 L 130.587 176.396 L 129.652 176.923 L 64.87 139.445 Z M 446.429 139.445 L 263.484 35.957 L 263.484 111.907 L 380.711 176.338 L 381.647 176.864 L 446.429 139.445 Z"/>
  <path fill="#1C78C0" d="M 247.815 379.629 L 138.13 319.291 L 138.13 199.842 L 247.815 263.162 L 247.815 379.629 Z M 263.484 379.629 L 373.169 319.349 L 373.169 199.842 L 263.484 263.162 L 263.484 379.629 Z M 255.649 258.602 Z M 145.555 186.044 L 255.649 125.53 L 365.744 186.044 L 255.649 249.598 L 145.555 186.044 Z"/>
</svg>